<?xml version="1.0" standalone="no"?>
<!DOCTYPE svg PUBLIC "-//W3C//DTD SVG 1.1//EN" "http://www.w3.org/Graphics/SVG/1.1/DTD/svg11.dtd">
<svg width="100%" height="100%" viewBox="0 0 512 512" version="1.1" xmlns="http://www.w3.org/2000/svg" xmlns:xlink="http://www.w3.org/1999/xlink" xml:space="preserve" style="fill-rule:evenodd;clip-rule:evenodd;stroke-linecap:round;stroke-linejoin:round;stroke-miterlimit:1.41421;">
    <g transform="matrix(2.93267,-5.98475e-17,-7.31408e-17,4.19117,-379.898,-771.367)">
        <g>
            <clipPath id="_clip1">
                <path d="M291.168,200.576L291.168,285.872C263.209,283.199 238.594,277.521 216.832,293.801L216.832,208.505C238.594,192.226 263.208,197.903 291.168,200.576Z"/>
            </clipPath>
            <g clip-path="url(#_clip1)">
                <g transform="matrix(0.913354,-5.60338e-18,-6.00855e-18,0.874643,-16.7958,27.3755)">
                    <path d="M270.168,224.262C283.759,214.689 301.126,215.059 321.51,218.416" style="fill:none;stroke-width:6.23px;stroke:black;"/>
                </g>
                <g transform="matrix(0.913354,-5.60338e-18,-6.00855e-18,0.874643,-16.7958,49.4157)">
                    <path d="M270.168,224.262C283.759,214.689 301.126,215.059 321.51,218.416" style="fill:none;stroke-width:6.23px;stroke:black;"/>
                </g>
                <g transform="matrix(0.913354,-5.60338e-18,-6.00855e-18,0.874643,-16.7958,71.4631)">
                    <path d="M270.168,224.262C283.759,214.689 301.126,215.059 321.51,218.416" style="fill:none;stroke-width:6.23px;stroke:black;"/>
                </g>
            </g>
        </g>
        <path d="M291.168,200.576L291.168,285.872C263.209,283.199 238.594,277.521 216.832,293.801L216.832,208.505C238.594,192.226 263.208,197.903 291.168,200.576Z" style="fill:none;stroke-width:5.53px;stroke:black;"/>
    </g>
    <g transform="matrix(-2.93267,1.43809e-17,-2.77295e-17,4.19117,891.898,-771.367)">
        <g>
            <clipPath id="_clip2">
                <path d="M291.168,200.576L291.168,285.872C263.209,283.199 238.594,277.521 216.832,293.801L216.832,208.505C238.594,192.226 263.208,197.903 291.168,200.576Z"/>
            </clipPath>
            <g clip-path="url(#_clip2)">
                <g transform="matrix(0.913354,-5.60338e-18,-6.00855e-18,0.874643,-16.7958,27.3755)">
                    <path d="M270.168,224.262C283.759,214.689 301.126,215.059 321.51,218.416" style="fill:none;stroke-width:6.23px;stroke:black;"/>
                </g>
                <g transform="matrix(0.913354,-5.60338e-18,-6.00855e-18,0.874643,-16.7958,49.4157)">
                    <path d="M270.168,224.262C283.759,214.689 301.126,215.059 321.51,218.416" style="fill:none;stroke-width:6.23px;stroke:black;"/>
                </g>
                <g transform="matrix(0.913354,-5.60338e-18,-6.00855e-18,0.874643,-16.7958,71.4631)">
                    <path d="M270.168,224.262C283.759,214.689 301.126,215.059 321.51,218.416" style="fill:none;stroke-width:6.23px;stroke:black;"/>
                </g>
            </g>
        </g>
        <path d="M291.168,200.576L291.168,285.872C263.209,283.199 238.594,277.521 216.832,293.801L216.832,208.505C238.594,192.226 263.208,197.903 291.168,200.576Z" style="fill:none;stroke-width:5.53px;stroke:black;"/>
    </g>
</svg>
