<?xml version="1.0" standalone="no"?>
<!DOCTYPE svg PUBLIC "-//W3C//DTD SVG 1.1//EN" "http://www.w3.org/Graphics/SVG/1.1/DTD/svg11.dtd">
<svg width="100%" height="100%" viewBox="0 0 1024 1024" version="1.1" xmlns="http://www.w3.org/2000/svg" xmlns:xlink="http://www.w3.org/1999/xlink" xml:space="preserve" style="fill-rule:evenodd;clip-rule:evenodd;stroke-linecap:round;stroke-linejoin:round;stroke-miterlimit:1.41421;">
    <rect id="Background" x="0" y="0" width="1024" height="1024" style="fill:rgb(255,0,0);"/>
    <path id="Shadow" d="M480.226,1024L216.521,760.295L760.295,216.521L1024,480.226L1024,1024L480.226,1024Z" style="fill:rgb(174,0,0);"/>
    <g id="Circle" transform="matrix(1.15151,0,0,1.15151,-77.5746,-77.5746)">
        <circle cx="512" cy="512" r="331.714" style="fill:rgb(245,245,245);stroke-width:17.37px;stroke:black;"/>
    </g>
    <g id="Key" transform="matrix(1.88197,0,0,1.88197,30.2154,-20.2681)">
        <path d="M272.64,267.213L272.64,449C259.986,454.675 252.039,454.675 239.36,449L239.36,438L205.363,438L205.363,422.2L215.976,422.2L215.976,426.517L228.078,426.517L228.078,409.508L215.976,409.508L215.976,413.825L205.363,413.825L205.363,392.859L215.976,392.859L215.976,397.176L228.078,397.176L228.078,380.167L215.976,380.167L215.976,384.484L205.363,384.484L205.363,368.683L239.36,368.683L239.36,267.213L237.77,267.213C236.39,267.213 235.27,266.092 235.27,264.713L235.27,259.713C235.27,258.344 236.372,257.23 237.737,257.213L237.77,257.213C236.39,257.213 235.27,256.092 235.27,254.713L235.27,249.713C235.27,248.819 235.74,248.033 236.447,247.592C236.181,246.955 225.651,226.007 222.995,221.623C222.208,220.325 220.021,220.894 218.5,220.894C198.079,220.894 181.5,204.315 181.5,183.894C181.5,163.473 198.079,146.894 218.5,146.894C220.415,146.894 222.216,146.737 223.132,146.32C223.774,146.029 224,145.38 224,144.394C224,126.732 238.339,112.394 256,112.394C273.661,112.394 288,126.732 288,144.394C288,145.38 288.226,146.029 288.868,146.32C289.784,146.737 291.585,146.894 293.5,146.894C313.921,146.894 330.5,163.473 330.5,183.894C330.5,204.315 313.921,220.894 293.5,220.894C291.979,220.894 289.792,220.325 289.005,221.623C286.349,226.007 275.819,246.955 275.553,247.592C276.26,248.033 276.73,248.819 276.73,249.713L276.73,254.713C276.73,256.082 275.628,257.195 274.263,257.212L274.23,257.213C275.61,257.213 276.73,258.333 276.73,259.713L276.73,264.713C276.73,266.092 275.61,267.213 274.23,267.213L272.64,267.213ZM237,217.3L256,236.394L275,217.3L256,198.312L237,217.3ZM217.683,205.705C217.963,205.715 218.218,205.72 218.5,205.72C230.918,205.72 240.326,196.312 240.326,183.894C240.326,181.06 239.846,178.589 238.888,176.09L238.86,176.018L238.811,175.894C238.794,175.851 238.779,175.813 238.762,175.77L238.73,175.69C238.362,174.786 237.975,173.989 237.498,173.148L237.483,173.121C236.908,172.111 236.316,171.236 235.598,170.332L235.587,170.319L235.573,170.302C233.153,167.266 230.242,165.076 226.581,163.615C225.997,163.382 225.455,163.191 224.849,163.007L224.833,163.002C223.747,162.673 222.728,162.446 221.58,162.284L221.551,162.279L221.487,162.271L221.415,162.261L221.305,162.246C221.249,162.239 221.198,162.233 221.142,162.226C220.249,162.118 219.422,162.067 218.5,162.067C206.082,162.067 196.674,171.476 196.674,183.894C196.674,184.864 196.73,185.734 196.849,186.672L196.867,186.808L196.874,186.857C197.17,189.039 197.727,190.936 198.603,192.873C198.668,193.016 198.728,193.146 198.797,193.288C198.898,193.501 198.993,193.692 199.101,193.901C199.217,194.125 199.326,194.327 199.449,194.546C199.636,194.879 199.814,195.178 200.017,195.5L200.044,195.543L200.077,195.596C200.523,196.296 200.963,196.909 201.481,197.553C204.504,201.314 208.349,203.851 213.17,205.063C213.502,205.147 213.807,205.216 214.144,205.284C214.634,205.384 215.085,205.46 215.585,205.527C215.682,205.54 215.77,205.551 215.867,205.562C216.24,205.607 216.582,205.64 216.96,205.666L217.099,205.676C217.299,205.688 217.482,205.697 217.683,205.705ZM292.517,205.698C292.853,205.713 293.16,205.72 293.5,205.72C305.918,205.72 315.326,196.312 315.326,183.894C315.326,182.213 315.158,180.722 314.808,179.146C314.793,179.082 314.78,179.023 314.765,178.958C314.132,176.226 313.1,173.909 311.572,171.658C311.471,171.51 311.379,171.376 311.275,171.231C311.113,171.004 310.961,170.8 310.791,170.579L310.757,170.535C310.671,170.425 310.593,170.325 310.505,170.217L310.423,170.115L310.364,170.043C308.019,167.192 305.252,165.123 301.787,163.698L301.747,163.682L301.666,163.649C301.54,163.598 301.426,163.553 301.299,163.505L301.251,163.486L301.17,163.455C301.101,163.429 301.038,163.406 300.969,163.381C300.808,163.322 300.66,163.27 300.497,163.215L300.478,163.209L300.37,163.172L300.32,163.156L300.243,163.131L300.197,163.116C300.072,163.076 299.959,163.04 299.833,163.002C298.78,162.683 297.793,162.461 296.681,162.298L296.551,162.279L296.488,162.271C296.351,162.252 296.226,162.236 296.088,162.22C295.213,162.116 294.403,162.067 293.5,162.067C281.082,162.067 271.674,171.476 271.674,183.894C271.674,186.822 272.187,189.372 273.206,191.938C273.244,192.033 273.279,192.119 273.318,192.214C273.58,192.847 273.843,193.409 274.159,194.012C274.369,194.412 274.571,194.769 274.803,195.155L274.835,195.208L274.901,195.315C275.163,195.74 275.414,196.119 275.703,196.525L275.779,196.632C276.254,197.291 276.717,197.866 277.259,198.469L277.347,198.566C277.559,198.799 277.756,199.007 277.977,199.231C279.041,200.308 280.108,201.191 281.37,202.037L281.409,202.063C283.511,203.465 285.652,204.431 288.17,205.063C288.508,205.148 288.818,205.219 289.161,205.288C289.645,205.386 290.091,205.46 290.585,205.527C290.705,205.543 290.815,205.556 290.935,205.57C291.285,205.612 291.606,205.642 291.96,205.666L292.099,205.676C292.242,205.685 292.373,205.692 292.517,205.698ZM238.598,144.394C238.598,154.328 246.066,161.796 256,161.796C265.934,161.796 273.402,154.328 273.402,144.394C273.402,134.459 265.935,126.992 256,126.992C246.066,126.992 238.598,134.459 238.598,144.394L238.598,144.394Z" style="fill:black;stroke-width:0.8px;stroke:black;"/>
    </g>
</svg>
