<?xml version="1.0" standalone="no"?>
<!DOCTYPE svg PUBLIC "-//W3C//DTD SVG 1.1//EN" "http://www.w3.org/Graphics/SVG/1.1/DTD/svg11.dtd">
<svg width="100%" height="100%" viewBox="0 0 512 512" version="1.1" xmlns="http://www.w3.org/2000/svg" xmlns:xlink="http://www.w3.org/1999/xlink" xml:space="preserve" style="fill-rule:evenodd;clip-rule:evenodd;stroke-linecap:round;stroke-linejoin:round;stroke-miterlimit:1.41421;">
    <g transform="matrix(1,0,0,1,-512,-512)">
        <g id="Gear" transform="matrix(1,0,0,1,512,512)">
            <g transform="matrix(1.01554,0,0,1.01554,-3.97712,-3.97712)">
                <path d="M286.017,37.479C266.099,34.743 245.901,34.743 225.983,37.479L207.339,99.31C197.765,102.283 188.484,106.128 179.612,110.795L122.708,80.257C106.689,92.406 92.406,106.689 80.257,122.708L110.795,179.612C106.128,188.484 102.283,197.765 99.31,207.339L37.479,225.983C34.743,245.901 34.743,266.099 37.479,286.017L99.31,304.661C102.283,314.235 106.128,323.516 110.795,332.388L80.257,389.292C92.406,405.311 106.689,419.594 122.708,431.743L179.612,401.205C188.484,405.872 197.765,409.717 207.339,412.69L225.983,474.521C245.901,477.257 266.099,477.257 286.017,474.521L304.661,412.69C314.235,409.717 323.516,405.872 332.388,401.205L389.292,431.743C405.311,419.594 419.594,405.311 431.743,389.292L401.205,332.388C405.872,323.516 409.717,314.235 412.69,304.661L474.521,286.017C477.257,266.099 477.257,245.901 474.521,225.983L412.69,207.339C409.717,197.765 405.872,188.484 401.205,179.612L431.743,122.708C419.594,106.689 405.311,92.406 389.292,80.257L332.388,110.795C323.516,106.128 314.235,102.283 304.661,99.31L286.017,37.479ZM256,190.012C292.42,190.012 321.988,219.58 321.988,256C321.988,292.42 292.42,321.988 256,321.988C219.58,321.988 190.012,292.42 190.012,256C190.012,219.58 219.58,190.012 256,190.012Z" style="fill:none;stroke-width:19.69px;stroke:black;"/>
            </g>
        </g>
    </g>
</svg>
